<svg height="439pt" viewBox="-12 0 439 439.536" width="439pt" xmlns="http://www.w3.org/2000/svg"><path d="m407.269531 175.574219v216.960937c0 22.09375-17.910156 40-40 40h-320c-22.09375 0-40-17.90625-40-40v-216.808594l80 67.738282 94.207031 79.769531c14.929688 12.640625 36.804688 12.632813 51.722657-.019531l94.070312-79.789063zm0 0" fill="#e48e66"/><path d="m407.269531 175.574219-80 67.851562v-135.589843zm0 0" fill="#f8ec7d"/><path d="m327.269531 107.835938v135.589843l-94.070312 79.789063c-14.917969 12.652344-36.792969 12.660156-51.722657.019531l-94.207031-79.769531v-204.757813c0-17.511719 14.195313-31.707031 31.707031-31.710937h120.972657l1.609375.160156v53.839844c-.003906 17.511718 14.195312 31.710937 31.710937 31.710937h54zm-50 81.929687c-.003906-31.761719-21.386719-59.542969-52.09375-67.667969-30.703125-8.125-63.03125 5.4375-78.742187 33.042969-15.714844 27.601563-10.871094 62.324219 11.792968 84.578125 22.664063 22.25 57.472657 26.453125 84.78125 10.238281 21.242188-12.613281 34.261719-35.488281 34.261719-60.191406zm0 0" fill="#6fe3ff"/><path d="m327.269531 92.527344v.179687h-54c-17.515625 0-31.714843-14.199219-31.710937-31.710937v-53.839844l.167968.019531zm0 0" fill="#2561a1"/><g fill="#f8ec7d"><path d="m207.269531 119.765625c31.523438 0 59.160157 21.070313 67.503907 51.46875s-4.660157 62.628906-31.765626 78.722656l-.738281-1.25c0-19.332031-15.671875-35-35-35-19.332031 0-35 15.667969-35 35l-.742187 1.257813c-21.238282-12.617188-34.257813-35.496094-34.257813-60.199219-.015625-38.664063 31.332031-70.011719 70-70zm22.269531 49.171875c0-12.300781-9.972656-22.273438-22.269531-22.273438-12.300781 0-22.273437 9.972657-22.273437 22.273438 0 12.296875 9.972656 22.269531 22.273437 22.269531 12.296875-.003906 22.265625-9.972656 22.269531-22.269531zm0 0"/><path d="m242.269531 248.707031.738281 1.25c-22.03125 13.074219-49.445312 13.078125-71.480468.007813l.742187-1.257813c0-19.332031 15.667969-35 35-35 19.328125 0 35 15.667969 35 35zm0 0"/><path d="m207.269531 146.65625c12.300781-.003906 22.277344 9.96875 22.277344 22.269531.003906 12.300781-9.964844 22.277344-22.269531 22.28125-12.300782 0-22.277344-9.96875-22.28125-22.269531 0-12.304688 9.96875-22.277344 22.273437-22.28125zm0 0"/><path d="m87.269531 107.875v135.589844l-80-67.738282zm0 0"/></g><path d="m410.652344 169.269531-76.382813-64.679687v-12.0625c0-1.859375-.742187-3.644532-2.058593-4.957032l-85.542969-85.347656c-.007813-.007812-.015625-.015625-.023438-.023437-1.320312-1.40625-3.164062-2.199219-5.089843-2.199219-.265626 0-.527344.015625-.789063.046875l-.132813-.0117188c-.230468-.0234374-.460937-.0351562-.6875-.0351562h-120.96875c-21.367187.0234375-38.683593 17.339844-38.707031 38.707031v65.929688l-75.964843 64.429687c-2.460938 1.148438-4.035157 3.613282-4.035157 6.328125v217.140625c.027344 25.945313 21.054688 46.972656 47 47h320c25.945313-.027344 46.96875-21.054687 47-47v-217.140625c-.003906-2.546875-1.386719-4.890625-3.617187-6.125zm-14.210938 6.308594-62.171875 52.734375v-105.378906zm-147.882812-151.699219 61.964844 61.828125h-37.253907c-13.640625-.015625-24.695312-11.070312-24.710937-24.710937zm-129.582032-9.882812h115.582032v47c.023437 21.367187 17.339844 38.6875 38.710937 38.710937h47v140.480469l-91.601562 77.691406c-12.289063 10.480469-30.371094 10.488282-42.671875.015625l-91.726563-77.675781v-201.511719c.015625-13.640625 11.066407-24.695312 24.707031-24.710937zm-38.707031 109v105.371094l-62.175781-52.644532zm-33 302.539062c-7.226562.007813-14.25-2.371094-19.988281-6.761718l95.710938-97.882813c2.664062-2.769531 2.59375-7.171875-.152344-9.855469-2.746094-2.6875-7.148438-2.65625-9.855469.066406l-94.816406 96.972657c-2.5625-4.777344-3.902344-10.117188-3.898438-15.539063v-201.710937l68.527344 58.027343.027344.023438 94.128906 79.699219c17.515625 14.917969 43.269531 14.90625 60.773437-.019531l162.542969-137.863282v201.84375c.003907 5.445313-1.34375 10.804688-3.925781 15.59375l-95.375-97.039062c-1.746094-1.816406-4.335938-2.554688-6.777344-1.933594s-4.359375 2.507812-5.023437 4.9375c-.664063 2.433594.03125 5.03125 1.816406 6.808594l96.222656 97.902344c-5.726562 4.371093-12.734375 6.734374-19.9375 6.730468zm0 0" fill="#63316d"/><path d="m207.269531 198.207031c16.167969 0 29.277344-13.105469 29.277344-29.273437.003906-16.171875-13.105469-29.277344-29.277344-29.277344-16.167969 0-29.273437 13.109375-29.273437 29.28125.019531 16.15625 13.113281 29.253906 29.273437 29.269531zm0-44.550781c8.433594-.003906 15.277344 6.832031 15.277344 15.269531.003906 8.4375-6.832031 15.277344-15.269531 15.28125-8.433594 0-15.277344-6.835937-15.28125-15.269531.007812-8.433594 6.839844-15.269531 15.273437-15.28125zm0 0" fill="#63316d"/><path d="m167.949219 255.984375c34.792969 20.671875 79.644531 10.898437 102.683593-22.375 23.035157-33.269531 16.402344-78.695313-15.191406-103.984375-31.59375-25.292969-77.367187-21.824219-104.792968 7.9375-27.421876 29.757812-27.140626 75.664062.648437 105.085938 4.902344 5.199218 10.507813 9.6875 16.652344 13.335937zm11.433593-9.71875c1.257813-14.460937 13.363282-25.5625 27.882813-25.5625 14.515625-.003906 26.625 11.09375 27.890625 25.554687-17.578125 8.675782-38.195312 8.679688-55.773438.007813zm-21.734374-95.332031c16.566406-21.164063 44.738281-29.488282 70.152343-20.726563 25.410157 8.761719 42.464844 32.679688 42.46875 59.558594-.054687 18.5625-8.246093 36.164063-22.410156 48.160156-4.890625-18.40625-21.554687-31.214843-40.597656-31.214843-19.042969.003906-35.703125 12.820312-40.585938 31.226562-1.828125-1.539062-3.566406-3.175781-5.207031-4.90625-21.398438-22.660156-23.019531-57.550781-3.820312-82.101562zm0 0" fill="#63316d"/></svg>